# xmcd
#
# Track frame offsets:
#	150
#	18835
#	28227
#	42610
#	61350
#	74732
#	81780
#	94865
#	118785
#	132072
#	153010
#
# Disc length: 2374 seconds
#
# Revision: 1
# Processed by: cddbd v1.5.1PL0 Copyright (c) Steve Scherf et al.
# Submitted via: CDex 1.50Beta5
#
DISCID=9209440b
DTITLE=チューリップ - Someday Somewhere Disc 2
DYEAR=1997
DGENRE=
TTITLE0=悲しみに挨拶を
TTITLE1=I Love You
TTITLE2=ムトウス
TTITLE3=哀別の日
TTITLE4=神様に感謝をしなければ
TTITLE5=愛の窓辺
TTITLE6=刹那居季節
TTITLE7=雨が降る
TTITLE8=あなたのなかへ
TTITLE9=居留守番電話
TTITLE10=Someday Somewhere
EXTD=
EXTT0=
EXTT1=
EXTT2=
EXTT3=
EXTT4=
EXTT5=
EXTT6=
EXTT7=
EXTT8=
EXTT9=
EXTT10=
PLAYORDER=
